<?xml version="1.0" standalone="no"?>
<!DOCTYPE svg PUBLIC "-//W3C//DTD SVG 20010904//EN"
 "http://www.w3.org/TR/2001/REC-SVG-20010904/DTD/svg10.dtd">
<svg version="1.0" xmlns="http://www.w3.org/2000/svg"
 width="408.000000pt" height="209.000000pt" viewBox="0 0 408.000000 209.000000"
 preserveAspectRatio="xMidYMid meet">

<g transform="translate(0.000000,209.000000) scale(0.100000,-0.100000)"
fill="#000000" stroke="none">
<path d="M1995 1584 c-14 -31 -25 -59 -25 -62 0 -2 -9 -23 -19 -46 -11 -23
-30 -68 -43 -101 -13 -33 -26 -61 -30 -63 -5 -2 -8 -11 -8 -20 1 -45 125 -81
213 -62 58 12 97 34 97 54 0 7 -9 35 -21 62 -11 27 -26 63 -33 79 -72 171 -92
215 -99 215 -4 0 -18 -25 -32 -56z m65 -136 c13 -35 27 -65 31 -68 4 -3 11
-22 17 -42 13 -47 -1 -60 -71 -66 -41 -3 -57 0 -76 16 l-25 19 23 54 c12 30
26 63 31 74 5 11 14 32 20 48 5 15 13 27 17 27 5 0 19 -28 33 -62z"/>
<path d="M547 1472 c10 -10 40 -35 67 -56 l48 -39 217 7 c119 3 275 11 346 16
220 16 425 20 425 8 0 -12 23 -65 53 -126 31 -61 94 -127 152 -159 47 -26 57
-28 170 -28 111 0 124 2 171 27 92 49 130 98 214 278 6 13 33 14 166 12 88 -2
206 -7 264 -12 58 -5 207 -12 331 -16 l226 -7 67 53 c36 30 66 55 66 57 0 2
-267 3 -594 3 l-593 0 -13 -62 c-21 -109 -83 -191 -177 -234 -72 -33 -186 -34
-251 -1 -95 47 -165 143 -181 247 l-6 45 -593 3 c-570 2 -592 1 -575 -16z"/>
<path d="M1547 1370 c-27 -5 -132 -13 -235 -19 -165 -10 -248 -17 -461 -37
-50 -5 -52 -7 -30 -18 13 -7 50 -27 81 -44 l58 -32 122 20 c68 11 157 27 198
34 41 8 131 23 199 34 68 11 128 25 134 31 10 10 3 42 -10 40 -4 -1 -30 -5
-56 -9z"/>
<path d="M2446 1365 c-3 -10 -5 -19 -4 -20 9 -6 107 -27 188 -40 52 -8 131
-22 175 -31 44 -8 131 -23 193 -33 l112 -18 53 30 c28 16 63 37 77 46 28 18
55 15 -290 40 -272 19 -413 31 -456 37 -33 5 -42 3 -48 -11z"/>
<path d="M1598 1295 c-2 -3 -38 -12 -79 -20 -147 -30 -285 -57 -348 -69 -36
-7 -66 -17 -69 -24 -2 -7 1 -12 8 -12 6 0 30 -8 53 -18 90 -39 89 -39 142 -24
27 7 64 20 82 28 17 8 36 14 41 14 6 0 23 5 39 12 15 6 64 24 108 39 43 15 81
31 83 37 7 21 -44 53 -60 37z"/>
<path d="M2418 1281 c-17 -20 -17 -21 2 -31 10 -5 25 -10 32 -10 7 0 25 -6 39
-14 14 -7 66 -26 115 -41 49 -16 94 -31 99 -35 6 -4 31 -13 56 -19 48 -13 66
-11 134 19 22 9 48 20 58 23 33 12 17 23 -50 35 -75 13 -217 41 -333 66 -135
29 -134 29 -152 7z"/>
<path d="M1655 1191 c-3 -5 -20 -13 -38 -17 -17 -3 -41 -13 -52 -20 -11 -8
-26 -14 -33 -14 -8 0 -28 -6 -45 -14 -18 -8 -50 -22 -72 -31 -45 -19 -46 -19
59 -44 49 -12 49 -12 136 39 48 27 93 50 99 50 16 0 14 29 -3 46 -17 16 -42
19 -51 5z"/>
<path d="M2352 1180 c-14 -22 -19 -18 110 -92 l77 -45 71 15 c69 15 86 27 53
38 -46 15 -201 77 -226 89 -39 21 -70 19 -85 -5z"/>
<path d="M1772 1088 c-17 -17 -15 -39 5 -53 16 -12 15 -17 -11 -75 -15 -34
-26 -63 -24 -66 3 -2 19 -7 36 -10 28 -6 33 -3 42 22 6 16 18 44 27 61 16 31
19 32 58 25 22 -4 95 -6 161 -5 l121 1 24 -51 c21 -44 28 -52 49 -49 40 4 43
16 17 78 -24 57 -25 59 -6 72 23 16 23 22 5 47 -12 17 -16 18 -37 4 -40 -26
-160 -59 -215 -59 -54 0 -175 32 -209 56 -24 17 -28 17 -43 2z"/>
<path d="M679 758 c-6 -18 -18 -46 -24 -63 -7 -16 -22 -52 -33 -80 -11 -27
-23 -58 -27 -67 -5 -13 -3 -18 8 -18 9 0 20 15 27 34 12 39 25 46 81 46 35 0
40 -4 59 -40 19 -38 40 -53 40 -29 0 5 -18 54 -40 107 -23 53 -45 107 -50 120
-13 31 -26 28 -41 -10z m49 -85 l11 -33 -40 0 c-23 0 -39 3 -37 8 2 4 10 24
18 45 16 42 29 37 48 -20z"/>
<path d="M1293 780 c-37 -15 -66 -52 -73 -89 -9 -52 6 -109 37 -137 22 -20 36
-24 87 -24 35 0 67 5 74 12 7 7 12 34 12 60 l0 48 -35 0 c-19 0 -35 -4 -35
-10 0 -5 9 -10 20 -10 16 0 20 -7 20 -34 0 -30 -4 -35 -30 -41 -16 -4 -45 -1
-64 5 -27 9 -38 20 -51 53 -22 58 -5 112 43 138 31 16 38 16 80 4 51 -16 64
-12 41 10 -18 18 -97 28 -126 15z"/>
<path d="M1546 775 c-81 -43 -95 -143 -31 -211 29 -31 38 -34 86 -34 46 1 59
5 89 32 33 30 35 36 35 95 0 56 -3 66 -30 93 -38 37 -105 49 -149 25z m111
-35 c23 -13 34 -29 38 -54 8 -42 -10 -103 -35 -116 -32 -17 -95 -12 -124 11
-22 17 -26 28 -26 73 0 42 5 57 23 73 41 38 77 42 124 13z"/>
<path d="M1916 768 c-9 -12 -16 -27 -16 -33 0 -5 -7 -23 -15 -38 -8 -15 -19
-42 -24 -60 -5 -18 -16 -49 -25 -70 -16 -36 -16 -38 0 -35 10 2 22 17 27 33
13 38 23 45 73 45 45 0 59 -10 69 -53 7 -28 35 -38 35 -12 0 8 -9 32 -20 52
-11 21 -20 46 -20 55 0 10 -4 18 -9 18 -5 0 -12 14 -16 30 -7 30 -33 90 -40
90 -2 0 -11 -10 -19 -22z m53 -121 c-2 -2 -19 -7 -36 -10 -29 -6 -33 -4 -33
14 0 11 7 34 16 51 l16 31 21 -42 c11 -22 19 -42 16 -44z"/>
<path d="M2145 783 c-84 -22 -110 -156 -43 -223 25 -26 37 -30 83 -30 62 0 85
7 85 25 0 9 -16 11 -64 8 -55 -5 -66 -3 -84 15 -28 28 -38 84 -22 123 22 52
85 70 153 44 12 -5 17 -2 17 8 0 9 -4 18 -9 21 -14 9 -94 15 -116 9z"/>
<path d="M2398 763 c-6 -16 -16 -41 -23 -58 -43 -104 -66 -168 -61 -172 9 -9
26 8 41 43 13 32 17 34 63 34 53 0 66 -9 77 -53 4 -15 13 -27 21 -27 16 0 18
13 4 38 -5 9 -21 46 -36 82 -62 155 -66 161 -86 113z m53 -99 c14 -18 12 -20
-27 -27 -41 -8 -44 -3 -31 41 14 48 30 58 39 26 4 -14 12 -32 19 -40z"/>
<path d="M855 655 c0 -93 3 -125 13 -125 9 0 12 26 12 95 0 52 4 95 9 95 4 0
21 -18 36 -40 15 -22 33 -40 39 -40 7 0 23 18 36 40 40 64 50 53 50 -55 0 -78
3 -95 15 -95 13 0 15 21 15 125 0 118 -1 125 -20 125 -12 0 -34 -19 -57 -50
-20 -27 -40 -50 -43 -50 -3 0 -20 23 -39 50 -56 83 -66 71 -66 -75z"/>
<path d="M1130 655 c0 -104 2 -125 15 -125 13 0 15 21 15 125 0 104 -2 125
-15 125 -13 0 -15 -21 -15 -125z"/>
<path d="M2570 655 l0 -125 70 0 c63 0 73 3 103 30 58 50 60 133 5 189 -29 29
-35 31 -104 31 l-74 0 0 -125z m135 91 c26 -11 36 -23 44 -51 23 -83 -16 -135
-100 -135 l-49 0 0 100 0 100 35 0 c20 0 51 -6 70 -14z"/>
<path d="M2840 655 l0 -125 65 0 c51 0 65 3 65 15 0 12 -13 15 -55 15 l-55 0
0 40 0 40 50 0 c37 0 50 4 50 14 0 11 -14 16 -47 18 l-48 3 0 40 0 40 53 3
c75 4 65 22 -13 22 l-65 0 0 -125z"/>
<path d="M3020 655 c0 -77 4 -125 10 -125 6 0 10 38 10 95 0 57 4 95 10 95 6
0 23 -18 38 -40 15 -21 32 -39 37 -39 6 0 26 21 45 47 l35 47 3 -102 c2 -83 6
-103 17 -103 12 0 15 22 15 125 0 114 -2 125 -18 125 -11 0 -33 -20 -52 -47
-18 -27 -35 -50 -37 -52 -5 -7 -61 61 -68 82 -4 9 -15 17 -26 17 -18 0 -19 -8
-19 -125z"/>
<path d="M3280 777 c0 -2 18 -28 40 -57 38 -50 40 -58 40 -122 0 -54 3 -68 15
-68 12 0 15 15 15 71 0 67 2 75 35 115 19 23 35 47 35 53 0 24 -29 9 -55 -29
-15 -22 -31 -40 -35 -40 -4 0 -12 11 -18 25 -6 14 -16 25 -22 25 -5 0 -10 7
-10 15 0 8 -9 15 -20 15 -11 0 -20 -1 -20 -3z"/>
</g>
</svg>
