<?xml version="1.0" standalone="no"?>
<!DOCTYPE svg PUBLIC "-//W3C//DTD SVG 20010904//EN"
 "http://www.w3.org/TR/2001/REC-SVG-20010904/DTD/svg10.dtd">
<svg version="1.0" xmlns="http://www.w3.org/2000/svg"
 width="90.000000pt" height="54.000000pt" viewBox="0 0 90.000000 54.000000"
 preserveAspectRatio="xMidYMid meet">

<g transform="translate(0.000000,54.000000) scale(0.100000,-0.100000)"
fill="#000000" stroke="none">
<path d="M315 438 c-69 -80 -95 -177 -57 -211 19 -18 82 -24 82 -8 0 4 -11 6
-24 4 -17 -4 -25 0 -29 14 -5 17 -5 17 -6 -1 -2 -30 -31 1 -31 34 0 37 55 145
87 170 14 11 22 20 17 20 -5 0 -2 5 6 10 9 6 10 10 3 10 -6 0 -28 -19 -48 -42z"/>
<path d="M347 378 c-13 -18 -27 -40 -32 -48 -9 -19 42 39 55 63 18 29 3 19
-23 -15z"/>
<path d="M389 323 l-24 -28 28 24 c25 23 32 31 24 31 -2 0 -14 -12 -28 -27z"/>
<path d="M296 295 c-9 -26 -7 -32 5 -12 6 10 9 21 6 23 -2 3 -7 -2 -11 -11z"/>
<path d="M350 269 c-7 -11 -10 -23 -7 -25 2 -2 9 7 15 21 14 30 7 33 -8 4z"/>
<path d="M472 260 c-34 -31 -34 -37 -2 -20 16 9 48 51 38 50 -2 0 -18 -14 -36
-30z"/>
<path d="M519 223 c-6 -7 -7 -13 -2 -13 5 0 17 6 27 13 16 12 17 14 2 14 -9 0
-21 -6 -27 -14z"/>
<path d="M440 100 c0 -5 5 -10 10 -10 6 0 10 5 10 10 0 6 -4 10 -10 10 -5 0
-10 -4 -10 -10z"/>
<path d="M480 100 c0 -5 5 -10 11 -10 5 0 7 5 4 10 -3 6 -8 10 -11 10 -2 0 -4
-4 -4 -10z"/>
<path d="M527 99 c7 -7 15 -10 18 -7 3 3 -2 9 -12 12 -14 6 -15 5 -6 -5z"/>
<path d="M625 100 c-3 -5 -1 -10 4 -10 6 0 11 5 11 10 0 6 -2 10 -4 10 -3 0
-8 -4 -11 -10z"/>
<path d="M318 53 c7 -3 16 -2 19 1 4 3 -2 6 -13 5 -11 0 -14 -3 -6 -6z"/>
</g>
</svg>
